# xmcd
#
# Track frame offsets:
#	150
#	101507
#	130332
#	163015
#	192790
#	222605
#	244357
#
# Disc length: 3499 seconds
#
# Revision: 0
# Processed by: cddbd v1.5.2PL0 Copyright (c) Steve Scherf et al.
# Submitted via: EasyCDDAExtractor 12.0.1.1
#
DISCID=660da907
DTITLE=Stanley Jordan - Bolero
DYEAR=2002
DGENRE=Blues
TTITLE0=Bolero
TTITLE1=Always And Forever
TTITLE2=Chameleon
TTITLE3=Betcha by Golly, Wow
TTITLE4=Drifting
TTITLE5=Plato's Blues
TTITLE6=Always and Forever (Solo Reprise)
EXTD=
EXTT0=
EXTT1=
EXTT2=
EXTT3=
EXTT4=
EXTT5=
EXTT6=
PLAYORDER=
